<svg width="220" height="62" viewBox="0 0 220 62" version="1.1" xmlns="http://www.w3.org/2000/svg" xmlns:xlink="http://www.w3.org/1999/xlink">
<title>&#208;&#159;&#208;&#190;&#208;&#191;&#209;&#131;&#208;&#187;&#209;&#143;&#209;&#128;&#208;&#189;&#209;&#139;&#208;&#181; &#208;&#189;&#208;&#176;&#208;&#191;&#209;&#128;&#208;&#176;&#208;&#178;&#208;&#187;&#208;&#181;&#208;&#189;</title>
<desc>Created using Figma</desc>
<g id="Canvas" transform="translate(-2457 -651)">
<g id="&#208;&#159;&#208;&#190;&#208;&#191;&#209;&#131;&#208;&#187;&#209;&#143;&#209;&#128;&#208;&#189;&#209;&#139;&#208;&#181; &#208;&#189;&#208;&#176;&#208;&#191;&#209;&#128;&#208;&#176;&#208;&#178;&#208;&#187;&#208;&#181;&#208;&#189;">
<use xlink:href="#path0_fill" transform="translate(2423 646)" fill="#4A4A4A"/>
<use xlink:href="#path1_fill" transform="translate(2423 646)" fill="#00ACE2"/>
</g>
</g>
<defs>
<path id="path0_fill" d="M 44.1826 18L 41.9678 18L 41.9678 6.99609L 36.334 6.99609L 36.334 18L 34.1191 18L 34.1191 5.20312L 44.1826 5.20312L 44.1826 18ZM 46.2656 13.1572C 46.2656 12.2256 46.4502 11.3877 46.8193 10.6436C 47.1885 9.89355 47.707 9.31934 48.375 8.9209C 49.043 8.5166 49.8105 8.31445 50.6777 8.31445C 51.9609 8.31445 53.001 8.72754 53.7979 9.55371C 54.6006 10.3799 55.0342 11.4756 55.0986 12.8408L 55.1074 13.3418C 55.1074 14.2793 54.9258 15.1172 54.5625 15.8555C 54.2051 16.5938 53.6895 17.165 53.0156 17.5693C 52.3477 17.9736 51.5742 18.1758 50.6953 18.1758C 49.3535 18.1758 48.2783 17.7305 47.4697 16.8398C 46.667 15.9434 46.2656 14.751 46.2656 13.2627L 46.2656 13.1572ZM 48.4014 13.3418C 48.4014 14.3203 48.6035 15.0879 49.0078 15.6445C 49.4121 16.1953 49.9746 16.4707 50.6953 16.4707C 51.416 16.4707 51.9756 16.1895 52.374 15.627C 52.7783 15.0645 52.9805 14.2412 52.9805 13.1572C 52.9805 12.1963 52.7725 11.4346 52.3564 10.8721C 51.9463 10.3096 51.3867 10.0283 50.6777 10.0283C 49.9805 10.0283 49.4268 10.3066 49.0166 10.8633C 48.6064 11.4141 48.4014 12.2402 48.4014 13.3418ZM 64.9775 18L 62.8418 18L 62.8418 10.2129L 59.1328 10.2129L 59.1328 18L 56.9971 18L 56.9971 8.49023L 64.9775 8.49023L 64.9775 18ZM 70.5762 14.9414L 72.5098 8.49023L 74.7861 8.49023L 71.0068 19.4414C 70.4268 21.041 69.4424 21.8408 68.0537 21.8408C 67.7432 21.8408 67.4004 21.7881 67.0254 21.6826L 67.0254 20.0303L 67.4297 20.0566C 67.9687 20.0566 68.373 19.957 68.6426 19.7578C 68.918 19.5645 69.1348 19.2363 69.293 18.7734L 69.6006 17.9561L 66.2607 8.49023L 68.5635 8.49023L 70.5762 14.9414ZM 83.7334 8.49023L 83.7334 18L 81.5977 18L 81.5977 10.2129L 78.9082 10.2129L 78.7324 13.5264C 78.6211 15.1201 78.3135 16.2656 77.8096 16.9629C 77.3115 17.6543 76.5469 18 75.5156 18L 74.8564 18L 74.8477 16.2246L 75.2871 16.1807C 75.7559 16.1162 76.0957 15.832 76.3066 15.3281C 76.5234 14.8184 76.6611 13.8926 76.7197 12.5508L 76.8955 8.49023L 83.7334 8.49023ZM 93.6211 8.49023L 93.6211 18L 91.4941 18L 91.4941 14.5107L 89.499 14.5107L 87.4688 18L 85.2539 18L 87.4951 14.1592C 86.9092 13.9131 86.458 13.5615 86.1416 13.1045C 85.8311 12.6475 85.6758 12.123 85.6758 11.5312C 85.6758 10.6465 86.0156 9.92285 86.6953 9.36035C 87.3809 8.79199 88.3037 8.50195 89.4639 8.49023L 93.6211 8.49023ZM 87.8115 11.584C 87.8115 11.9824 87.958 12.3076 88.251 12.5596C 88.5498 12.8057 88.9307 12.9287 89.3936 12.9287L 91.4941 12.9287L 91.4941 10.1865L 89.5254 10.1865C 89.0039 10.1865 88.5879 10.3184 88.2773 10.582C 87.9668 10.8457 87.8115 11.1797 87.8115 11.584ZM 104.317 13.3418C 104.317 14.8125 103.983 15.9873 103.315 16.8662C 102.647 17.7393 101.751 18.1758 100.626 18.1758C 99.583 18.1758 98.748 17.833 98.1211 17.1475L 98.1211 21.6562L 95.9854 21.6562L 95.9854 8.49023L 97.9541 8.49023L 98.042 9.45703C 98.6689 8.69531 99.5215 8.31445 100.6 8.31445C 101.76 8.31445 102.668 8.74805 103.324 9.61523C 103.986 10.4766 104.317 11.6748 104.317 13.21L 104.317 13.3418ZM 102.19 13.1572C 102.19 12.208 102 11.4551 101.619 10.8984C 101.244 10.3418 100.705 10.0635 100.002 10.0635C 99.1289 10.0635 98.502 10.4238 98.1211 11.1445L 98.1211 15.3633C 98.5078 16.1016 99.1406 16.4707 100.02 16.4707C 100.699 16.4707 101.229 16.1982 101.61 15.6533C 101.997 15.1025 102.19 14.2705 102.19 13.1572ZM 114.188 18L 112.052 18L 112.052 14.1592L 108.352 14.1592L 108.352 18L 106.216 18L 106.216 8.49023L 108.352 8.49023L 108.352 12.4541L 112.052 12.4541L 112.052 8.49023L 114.188 8.49023L 114.188 18ZM 118.767 11.5137L 120.858 11.5137C 121.638 11.5137 122.317 11.6484 122.897 11.918C 123.478 12.1875 123.917 12.5654 124.216 13.0518C 124.521 13.5381 124.673 14.1035 124.673 14.748C 124.673 15.7266 124.327 16.5117 123.636 17.1035C 122.944 17.6953 122.024 17.9941 120.876 18L 116.631 18L 116.631 8.49023L 118.767 8.49023L 118.767 11.5137ZM 128.391 18L 126.255 18L 126.255 8.49023L 128.391 8.49023L 128.391 18ZM 118.767 13.2275L 118.767 16.2949L 120.85 16.2949C 121.371 16.2949 121.781 16.166 122.08 15.9082C 122.385 15.6445 122.537 15.2725 122.537 14.792C 122.537 14.3115 122.388 13.9336 122.089 13.6582C 121.796 13.377 121.397 13.2334 120.894 13.2275L 118.767 13.2275ZM 135.141 18.1758C 133.787 18.1758 132.688 17.751 131.845 16.9014C 131.007 16.0459 130.588 14.9092 130.588 13.4912L 130.588 13.2275C 130.588 12.2783 130.77 11.4316 131.133 10.6875C 131.502 9.9375 132.018 9.35449 132.68 8.93848C 133.342 8.52246 134.08 8.31445 134.895 8.31445C 136.189 8.31445 137.188 8.72754 137.892 9.55371C 138.601 10.3799 138.955 11.5488 138.955 13.0605L 138.955 13.9219L 132.741 13.9219C 132.806 14.707 133.066 15.3281 133.523 15.7852C 133.986 16.2422 134.566 16.4707 135.264 16.4707C 136.242 16.4707 137.039 16.0752 137.654 15.2842L 138.806 16.3828C 138.425 16.9512 137.915 17.3936 137.276 17.71C 136.644 18.0205 135.932 18.1758 135.141 18.1758ZM 134.886 10.0283C 134.3 10.0283 133.825 10.2334 133.462 10.6436C 133.104 11.0537 132.876 11.625 132.776 12.3574L 136.846 12.3574L 136.846 12.1992C 136.799 11.4844 136.608 10.9453 136.274 10.582C 135.94 10.2129 135.478 10.0283 134.886 10.0283ZM 153.158 18L 151.022 18L 151.022 14.1592L 147.322 14.1592L 147.322 18L 145.187 18L 145.187 8.49023L 147.322 8.49023L 147.322 12.4541L 151.022 12.4541L 151.022 8.49023L 153.158 8.49023L 153.158 18ZM 161.121 18C 161.027 17.8184 160.945 17.5225 160.875 17.1123C 160.195 17.8213 159.363 18.1758 158.379 18.1758C 157.424 18.1758 156.645 17.9033 156.041 17.3584C 155.438 16.8135 155.136 16.1396 155.136 15.3369C 155.136 14.3232 155.511 13.5469 156.261 13.0078C 157.017 12.4629 158.095 12.1904 159.495 12.1904L 160.805 12.1904L 160.805 11.5664C 160.805 11.0742 160.667 10.6816 160.392 10.3887C 160.116 10.0898 159.697 9.94043 159.135 9.94043C 158.648 9.94043 158.25 10.0635 157.939 10.3096C 157.629 10.5498 157.474 10.8574 157.474 11.2324L 155.338 11.2324C 155.338 10.7109 155.511 10.2246 155.856 9.77344C 156.202 9.31641 156.671 8.95898 157.263 8.70117C 157.86 8.44336 158.525 8.31445 159.258 8.31445C 160.371 8.31445 161.259 8.5957 161.921 9.1582C 162.583 9.71484 162.923 10.5 162.94 11.5137L 162.94 15.8027C 162.94 16.6582 163.061 17.3408 163.301 17.8506L 163.301 18L 161.121 18ZM 158.774 16.4619C 159.196 16.4619 159.592 16.3594 159.961 16.1543C 160.336 15.9492 160.617 15.6738 160.805 15.3281L 160.805 13.5352L 159.653 13.5352C 158.862 13.5352 158.268 13.6729 157.869 13.9482C 157.471 14.2236 157.271 14.6133 157.271 15.1172C 157.271 15.5273 157.406 15.8555 157.676 16.1016C 157.951 16.3418 158.317 16.4619 158.774 16.4619ZM 173.241 18L 171.105 18L 171.105 10.2129L 167.396 10.2129L 167.396 18L 165.261 18L 165.261 8.49023L 173.241 8.49023L 173.241 18ZM 183.841 13.3418C 183.841 14.8125 183.507 15.9873 182.839 16.8662C 182.171 17.7393 181.274 18.1758 180.149 18.1758C 179.106 18.1758 178.271 17.833 177.645 17.1475L 177.645 21.6562L 175.509 21.6562L 175.509 8.49023L 177.478 8.49023L 177.565 9.45703C 178.192 8.69531 179.045 8.31445 180.123 8.31445C 181.283 8.31445 182.191 8.74805 182.848 9.61523C 183.51 10.4766 183.841 11.6748 183.841 13.21L 183.841 13.3418ZM 181.714 13.1572C 181.714 12.208 181.523 11.4551 181.143 10.8984C 180.768 10.3418 180.229 10.0635 179.525 10.0635C 178.652 10.0635 178.025 10.4238 177.645 11.1445L 177.645 15.3633C 178.031 16.1016 178.664 16.4707 179.543 16.4707C 180.223 16.4707 180.753 16.1982 181.134 15.6533C 181.521 15.1025 181.714 14.2705 181.714 13.1572ZM 191.338 18C 191.244 17.8184 191.162 17.5225 191.092 17.1123C 190.412 17.8213 189.58 18.1758 188.596 18.1758C 187.641 18.1758 186.861 17.9033 186.258 17.3584C 185.654 16.8135 185.353 16.1396 185.353 15.3369C 185.353 14.3232 185.728 13.5469 186.478 13.0078C 187.233 12.4629 188.312 12.1904 189.712 12.1904L 191.021 12.1904L 191.021 11.5664C 191.021 11.0742 190.884 10.6816 190.608 10.3887C 190.333 10.0898 189.914 9.94043 189.352 9.94043C 188.865 9.94043 188.467 10.0635 188.156 10.3096C 187.846 10.5498 187.69 10.8574 187.69 11.2324L 185.555 11.2324C 185.555 10.7109 185.728 10.2246 186.073 9.77344C 186.419 9.31641 186.888 8.95898 187.479 8.70117C 188.077 8.44336 188.742 8.31445 189.475 8.31445C 190.588 8.31445 191.476 8.5957 192.138 9.1582C 192.8 9.71484 193.14 10.5 193.157 11.5137L 193.157 15.8027C 193.157 16.6582 193.277 17.3408 193.518 17.8506L 193.518 18L 191.338 18ZM 188.991 16.4619C 189.413 16.4619 189.809 16.3594 190.178 16.1543C 190.553 15.9492 190.834 15.6738 191.021 15.3281L 191.021 13.5352L 189.87 13.5352C 189.079 13.5352 188.484 13.6729 188.086 13.9482C 187.687 14.2236 187.488 14.6133 187.488 15.1172C 187.488 15.5273 187.623 15.8555 187.893 16.1016C 188.168 16.3418 188.534 16.4619 188.991 16.4619ZM 195.557 18L 195.557 8.49023L 199.415 8.49023C 200.716 8.49023 201.706 8.71875 202.386 9.17578C 203.065 9.62695 203.405 10.2773 203.405 11.127C 203.405 11.5664 203.268 11.9619 202.992 12.3135C 202.723 12.6592 202.321 12.9258 201.788 13.1133C 202.409 13.2422 202.901 13.5029 203.265 13.8955C 203.628 14.2881 203.81 14.751 203.81 15.2842C 203.81 16.1689 203.481 16.8428 202.825 17.3057C 202.175 17.7686 201.237 18 200.013 18L 195.557 18ZM 197.692 13.9482L 197.692 16.3125L 200.03 16.3125C 201.126 16.3125 201.674 15.9199 201.674 15.1348C 201.674 14.3438 201.117 13.9482 200.004 13.9482L 197.692 13.9482ZM 197.692 12.4189L 199.45 12.4189C 200.663 12.4189 201.27 12.0615 201.27 11.3467C 201.27 10.5967 200.695 10.21 199.547 10.1865L 197.692 10.1865L 197.692 12.4189ZM 213.741 8.49023L 213.741 18L 211.605 18L 211.605 10.2129L 208.916 10.2129L 208.74 13.5264C 208.629 15.1201 208.321 16.2656 207.817 16.9629C 207.319 17.6543 206.555 18 205.523 18L 204.864 18L 204.855 16.2246L 205.295 16.1807C 205.764 16.1162 206.104 15.832 206.314 15.3281C 206.531 14.8184 206.669 13.8926 206.728 12.5508L 206.903 8.49023L 213.741 8.49023ZM 220.201 18.1758C 218.848 18.1758 217.749 17.751 216.905 16.9014C 216.067 16.0459 215.648 14.9092 215.648 13.4912L 215.648 13.2275C 215.648 12.2783 215.83 11.4316 216.193 10.6875C 216.562 9.9375 217.078 9.35449 217.74 8.93848C 218.402 8.52246 219.141 8.31445 219.955 8.31445C 221.25 8.31445 222.249 8.72754 222.952 9.55371C 223.661 10.3799 224.016 11.5488 224.016 13.0605L 224.016 13.9219L 217.802 13.9219C 217.866 14.707 218.127 15.3281 218.584 15.7852C 219.047 16.2422 219.627 16.4707 220.324 16.4707C 221.303 16.4707 222.1 16.0752 222.715 15.2842L 223.866 16.3828C 223.485 16.9512 222.976 17.3936 222.337 17.71C 221.704 18.0205 220.992 18.1758 220.201 18.1758ZM 219.946 10.0283C 219.36 10.0283 218.886 10.2334 218.522 10.6436C 218.165 11.0537 217.937 11.625 217.837 12.3574L 221.906 12.3574L 221.906 12.1992C 221.859 11.4844 221.669 10.9453 221.335 10.582C 221.001 10.2129 220.538 10.0283 219.946 10.0283ZM 233.736 18L 231.601 18L 231.601 14.1592L 227.9 14.1592L 227.9 18L 225.765 18L 225.765 8.49023L 227.9 8.49023L 227.9 12.4541L 231.601 12.4541L 231.601 8.49023L 233.736 8.49023L 233.736 18ZM 241.954 8.49023L 244.081 8.49023L 244.081 18L 241.954 18L 241.954 11.6543L 238.228 18L 236.101 18L 236.101 8.49023L 238.228 8.49023L 238.228 14.8359L 241.954 8.49023ZM 253.969 8.49023L 253.969 18L 251.842 18L 251.842 14.5107L 249.847 14.5107L 247.816 18L 245.602 18L 247.843 14.1592C 247.257 13.9131 246.806 13.5615 246.489 13.1045C 246.179 12.6475 246.023 12.123 246.023 11.5312C 246.023 10.6465 246.363 9.92285 247.043 9.36035C 247.729 8.79199 248.651 8.50195 249.812 8.49023L 253.969 8.49023ZM 248.159 11.584C 248.159 11.9824 248.306 12.3076 248.599 12.5596C 248.897 12.8057 249.278 12.9287 249.741 12.9287L 251.842 12.9287L 251.842 10.1865L 249.873 10.1865C 249.352 10.1865 248.936 10.3184 248.625 10.582C 248.314 10.8457 248.159 11.1797 248.159 11.584ZM 63.0879 42L 60.9521 42L 60.9521 34.2129L 57.2432 34.2129L 57.2432 42L 55.1074 42L 55.1074 32.4902L 63.0879 32.4902L 63.0879 42ZM 69.5479 42.1758C 68.1943 42.1758 67.0957 41.751 66.252 40.9014C 65.4141 40.0459 64.9951 38.9092 64.9951 37.4912L 64.9951 37.2275C 64.9951 36.2783 65.1768 35.4316 65.54 34.6875C 65.9092 33.9375 66.4248 33.3545 67.0869 32.9385C 67.749 32.5225 68.4873 32.3145 69.3018 32.3145C 70.5967 32.3145 71.5957 32.7275 72.2988 33.5537C 73.0078 34.3799 73.3623 35.5488 73.3623 37.0605L 73.3623 37.9219L 67.1484 37.9219C 67.2129 38.707 67.4736 39.3281 67.9307 39.7852C 68.3936 40.2422 68.9736 40.4707 69.6709 40.4707C 70.6494 40.4707 71.4463 40.0752 72.0615 39.2842L 73.2129 40.3828C 72.832 40.9512 72.3223 41.3936 71.6836 41.71C 71.0508 42.0205 70.3389 42.1758 69.5479 42.1758ZM 69.293 34.0283C 68.707 34.0283 68.2324 34.2334 67.8691 34.6436C 67.5117 35.0537 67.2832 35.625 67.1836 36.3574L 71.2529 36.3574L 71.2529 36.1992C 71.2061 35.4844 71.0156 34.9453 70.6816 34.582C 70.3477 34.2129 69.8848 34.0283 69.293 34.0283ZM 83.3555 37.3418C 83.3555 38.8125 83.0215 39.9873 82.3535 40.8662C 81.6855 41.7393 80.7891 42.1758 79.6641 42.1758C 78.6211 42.1758 77.7861 41.833 77.1592 41.1475L 77.1592 45.6562L 75.0234 45.6562L 75.0234 32.4902L 76.9922 32.4902L 77.0801 33.457C 77.707 32.6953 78.5596 32.3145 79.6377 32.3145C 80.7979 32.3145 81.7061 32.748 82.3623 33.6152C 83.0244 34.4766 83.3555 35.6748 83.3555 37.21L 83.3555 37.3418ZM 81.2285 37.1572C 81.2285 36.208 81.0381 35.4551 80.6572 34.8984C 80.2822 34.3418 79.7432 34.0635 79.04 34.0635C 78.167 34.0635 77.54 34.4238 77.1592 35.1445L 77.1592 39.3633C 77.5459 40.1016 78.1787 40.4707 79.0576 40.4707C 79.7373 40.4707 80.2676 40.1982 80.6484 39.6533C 81.0352 39.1025 81.2285 38.2705 81.2285 37.1572ZM 89.3584 42.1758C 88.0049 42.1758 86.9062 41.751 86.0625 40.9014C 85.2246 40.0459 84.8057 38.9092 84.8057 37.4912L 84.8057 37.2275C 84.8057 36.2783 84.9873 35.4316 85.3506 34.6875C 85.7197 33.9375 86.2354 33.3545 86.8975 32.9385C 87.5596 32.5225 88.2979 32.3145 89.1123 32.3145C 90.4072 32.3145 91.4062 32.7275 92.1094 33.5537C 92.8184 34.3799 93.1729 35.5488 93.1729 37.0605L 93.1729 37.9219L 86.959 37.9219C 87.0234 38.707 87.2842 39.3281 87.7412 39.7852C 88.2041 40.2422 88.7842 40.4707 89.4814 40.4707C 90.46 40.4707 91.2568 40.0752 91.8721 39.2842L 93.0234 40.3828C 92.6426 40.9512 92.1328 41.3936 91.4941 41.71C 90.8613 42.0205 90.1494 42.1758 89.3584 42.1758ZM 89.1035 34.0283C 88.5176 34.0283 88.043 34.2334 87.6797 34.6436C 87.3223 35.0537 87.0938 35.625 86.9941 36.3574L 91.0635 36.3574L 91.0635 36.1992C 91.0166 35.4844 90.8262 34.9453 90.4922 34.582C 90.1582 34.2129 89.6953 34.0283 89.1035 34.0283ZM 102.92 32.4902L 102.92 42L 100.784 42L 100.784 34.2129L 98.0947 34.2129L 97.9189 37.5264C 97.8076 39.1201 97.5 40.2656 96.9961 40.9629C 96.498 41.6543 95.7334 42 94.7021 42L 94.043 42L 94.0342 40.2246L 94.4736 40.1807C 94.9424 40.1162 95.2822 39.832 95.4932 39.3281C 95.71 38.8184 95.8477 37.8926 95.9062 36.5508L 96.082 32.4902L 102.92 32.4902ZM 109.38 42.1758C 108.026 42.1758 106.928 41.751 106.084 40.9014C 105.246 40.0459 104.827 38.9092 104.827 37.4912L 104.827 37.2275C 104.827 36.2783 105.009 35.4316 105.372 34.6875C 105.741 33.9375 106.257 33.3545 106.919 32.9385C 107.581 32.5225 108.319 32.3145 109.134 32.3145C 110.429 32.3145 111.428 32.7275 112.131 33.5537C 112.84 34.3799 113.194 35.5488 113.194 37.0605L 113.194 37.9219L 106.98 37.9219C 107.045 38.707 107.306 39.3281 107.763 39.7852C 108.226 40.2422 108.806 40.4707 109.503 40.4707C 110.481 40.4707 111.278 40.0752 111.894 39.2842L 113.045 40.3828C 112.664 40.9512 112.154 41.3936 111.516 41.71C 110.883 42.0205 110.171 42.1758 109.38 42.1758ZM 109.125 34.0283C 108.539 34.0283 108.064 34.2334 107.701 34.6436C 107.344 35.0537 107.115 35.625 107.016 36.3574L 111.085 36.3574L 111.085 36.1992C 111.038 35.4844 110.848 34.9453 110.514 34.582C 110.18 34.2129 109.717 34.0283 109.125 34.0283ZM 122.238 34.1865L 119.153 34.1865L 119.153 42L 117.018 42L 117.018 34.1865L 113.968 34.1865L 113.968 32.4902L 122.238 32.4902L 122.238 34.1865ZM 123.003 37.1572C 123.003 36.2256 123.188 35.3877 123.557 34.6436C 123.926 33.8936 124.444 33.3193 125.112 32.9209C 125.78 32.5166 126.548 32.3145 127.415 32.3145C 128.698 32.3145 129.738 32.7275 130.535 33.5537C 131.338 34.3799 131.771 35.4756 131.836 36.8408L 131.845 37.3418C 131.845 38.2793 131.663 39.1172 131.3 39.8555C 130.942 40.5938 130.427 41.165 129.753 41.5693C 129.085 41.9736 128.312 42.1758 127.433 42.1758C 126.091 42.1758 125.016 41.7305 124.207 40.8398C 123.404 39.9434 123.003 38.751 123.003 37.2627L 123.003 37.1572ZM 125.139 37.3418C 125.139 38.3203 125.341 39.0879 125.745 39.6445C 126.149 40.1953 126.712 40.4707 127.433 40.4707C 128.153 40.4707 128.713 40.1895 129.111 39.627C 129.516 39.0645 129.718 38.2412 129.718 37.1572C 129.718 36.1963 129.51 35.4346 129.094 34.8721C 128.684 34.3096 128.124 34.0283 127.415 34.0283C 126.718 34.0283 126.164 34.3066 125.754 34.8633C 125.344 35.4141 125.139 36.2402 125.139 37.3418ZM 133.813 42L 133.813 32.4902L 137.672 32.4902C 138.973 32.4902 139.963 32.7188 140.643 33.1758C 141.322 33.627 141.662 34.2773 141.662 35.127C 141.662 35.5664 141.524 35.9619 141.249 36.3135C 140.979 36.6592 140.578 36.9258 140.045 37.1133C 140.666 37.2422 141.158 37.5029 141.521 37.8955C 141.885 38.2881 142.066 38.751 142.066 39.2842C 142.066 40.1689 141.738 40.8428 141.082 41.3057C 140.432 41.7686 139.494 42 138.27 42L 133.813 42ZM 135.949 37.9482L 135.949 40.3125L 138.287 40.3125C 139.383 40.3125 139.931 39.9199 139.931 39.1348C 139.931 38.3438 139.374 37.9482 138.261 37.9482L 135.949 37.9482ZM 135.949 36.4189L 137.707 36.4189C 138.92 36.4189 139.526 36.0615 139.526 35.3467C 139.526 34.5967 138.952 34.21 137.804 34.1865L 135.949 34.1865L 135.949 36.4189ZM 154.336 32.4902L 156.463 32.4902L 156.463 42L 154.336 42L 154.336 35.6543L 150.609 42L 148.482 42L 148.482 32.4902L 150.609 32.4902L 150.609 38.8359L 154.336 32.4902ZM 165.938 35.0918C 165.938 35.5137 165.809 35.9033 165.551 36.2607C 165.299 36.6123 164.941 36.8936 164.479 37.1045C 165.568 37.4854 166.113 38.2207 166.113 39.3105C 166.113 40.1836 165.759 40.8809 165.05 41.4023C 164.341 41.918 163.392 42.1758 162.202 42.1758C 161.476 42.1758 160.813 42.0557 160.216 41.8154C 159.618 41.5693 159.152 41.2236 158.818 40.7783C 158.484 40.3271 158.317 39.7939 158.317 39.1787L 160.444 39.1787C 160.444 39.5654 160.617 39.8906 160.963 40.1543C 161.309 40.4121 161.745 40.541 162.272 40.541C 162.794 40.541 163.207 40.4209 163.512 40.1807C 163.822 39.9346 163.978 39.6152 163.978 39.2227C 163.978 38.7598 163.843 38.4258 163.573 38.2207C 163.304 38.0156 162.888 37.9131 162.325 37.9131L 160.796 37.9131L 160.796 36.375L 162.378 36.375C 163.333 36.3633 163.811 35.9707 163.811 35.1973C 163.811 34.8105 163.673 34.5088 163.397 34.292C 163.122 34.0752 162.744 33.9668 162.264 33.9668C 161.795 33.9668 161.399 34.084 161.077 34.3184C 160.755 34.5469 160.594 34.8369 160.594 35.1885L 158.467 35.1885C 158.467 34.3506 158.818 33.665 159.521 33.1318C 160.225 32.5928 161.118 32.3232 162.202 32.3232C 163.38 32.3232 164.297 32.5635 164.953 33.0439C 165.609 33.5244 165.938 34.207 165.938 35.0918ZM 178.743 34.2129L 174.612 34.2129L 174.612 42L 172.485 42L 172.485 32.4902L 178.743 32.4902L 178.743 34.2129ZM 179.376 37.1572C 179.376 36.2256 179.561 35.3877 179.93 34.6436C 180.299 33.8936 180.817 33.3193 181.485 32.9209C 182.153 32.5166 182.921 32.3145 183.788 32.3145C 185.071 32.3145 186.111 32.7275 186.908 33.5537C 187.711 34.3799 188.145 35.4756 188.209 36.8408L 188.218 37.3418C 188.218 38.2793 188.036 39.1172 187.673 39.8555C 187.315 40.5938 186.8 41.165 186.126 41.5693C 185.458 41.9736 184.685 42.1758 183.806 42.1758C 182.464 42.1758 181.389 41.7305 180.58 40.8398C 179.777 39.9434 179.376 38.751 179.376 37.2627L 179.376 37.1572ZM 181.512 37.3418C 181.512 38.3203 181.714 39.0879 182.118 39.6445C 182.522 40.1953 183.085 40.4707 183.806 40.4707C 184.526 40.4707 185.086 40.1895 185.484 39.627C 185.889 39.0645 186.091 38.2412 186.091 37.1572C 186.091 36.1963 185.883 35.4346 185.467 34.8721C 185.057 34.3096 184.497 34.0283 183.788 34.0283C 183.091 34.0283 182.537 34.3066 182.127 34.8633C 181.717 35.4141 181.512 36.2402 181.512 37.3418ZM 198.352 37.3418C 198.352 38.8125 198.018 39.9873 197.35 40.8662C 196.682 41.7393 195.785 42.1758 194.66 42.1758C 193.617 42.1758 192.782 41.833 192.155 41.1475L 192.155 45.6562L 190.02 45.6562L 190.02 32.4902L 191.988 32.4902L 192.076 33.457C 192.703 32.6953 193.556 32.3145 194.634 32.3145C 195.794 32.3145 196.702 32.748 197.358 33.6152C 198.021 34.4766 198.352 35.6748 198.352 37.21L 198.352 37.3418ZM 196.225 37.1572C 196.225 36.208 196.034 35.4551 195.653 34.8984C 195.278 34.3418 194.739 34.0635 194.036 34.0635C 193.163 34.0635 192.536 34.4238 192.155 35.1445L 192.155 39.3633C 192.542 40.1016 193.175 40.4707 194.054 40.4707C 194.733 40.4707 195.264 40.1982 195.645 39.6533C 196.031 39.1025 196.225 38.2705 196.225 37.1572ZM 199.767 37.1572C 199.767 36.2256 199.951 35.3877 200.32 34.6436C 200.689 33.8936 201.208 33.3193 201.876 32.9209C 202.544 32.5166 203.312 32.3145 204.179 32.3145C 205.462 32.3145 206.502 32.7275 207.299 33.5537C 208.102 34.3799 208.535 35.4756 208.6 36.8408L 208.608 37.3418C 208.608 38.2793 208.427 39.1172 208.063 39.8555C 207.706 40.5938 207.19 41.165 206.517 41.5693C 205.849 41.9736 205.075 42.1758 204.196 42.1758C 202.854 42.1758 201.779 41.7305 200.971 40.8398C 200.168 39.9434 199.767 38.751 199.767 37.2627L 199.767 37.1572ZM 201.902 37.3418C 201.902 38.3203 202.104 39.0879 202.509 39.6445C 202.913 40.1953 203.476 40.4707 204.196 40.4707C 204.917 40.4707 205.477 40.1895 205.875 39.627C 206.279 39.0645 206.481 38.2412 206.481 37.1572C 206.481 36.1963 206.273 35.4346 205.857 34.8721C 205.447 34.3096 204.888 34.0283 204.179 34.0283C 203.481 34.0283 202.928 34.3066 202.518 34.8633C 202.107 35.4141 201.902 36.2402 201.902 37.3418ZM 209.821 40.2949C 210.413 39.6328 210.809 39.0059 211.008 38.4141C 211.213 37.8164 211.336 37.0547 211.377 36.1289L 211.5 32.4902L 218.101 32.4902L 218.101 40.2949L 219.419 40.2949L 219.419 44.8301L 217.292 44.8301L 217.292 42L 211.192 42L 211.192 44.8301L 209.03 44.8301L 209.039 40.2949L 209.821 40.2949ZM 212.326 40.2949L 215.974 40.2949L 215.974 34.3271L 213.574 34.3271L 213.513 36.1465C 213.431 37.8926 213.035 39.2754 212.326 40.2949ZM 226.626 42C 226.532 41.8184 226.45 41.5225 226.38 41.1123C 225.7 41.8213 224.868 42.1758 223.884 42.1758C 222.929 42.1758 222.149 41.9033 221.546 41.3584C 220.942 40.8135 220.641 40.1396 220.641 39.3369C 220.641 38.3232 221.016 37.5469 221.766 37.0078C 222.521 36.4629 223.6 36.1904 225 36.1904L 226.31 36.1904L 226.31 35.5664C 226.31 35.0742 226.172 34.6816 225.896 34.3887C 225.621 34.0898 225.202 33.9404 224.64 33.9404C 224.153 33.9404 223.755 34.0635 223.444 34.3096C 223.134 34.5498 222.979 34.8574 222.979 35.2324L 220.843 35.2324C 220.843 34.7109 221.016 34.2246 221.361 33.7734C 221.707 33.3164 222.176 32.959 222.768 32.7012C 223.365 32.4434 224.03 32.3145 224.763 32.3145C 225.876 32.3145 226.764 32.5957 227.426 33.1582C 228.088 33.7148 228.428 34.5 228.445 35.5137L 228.445 39.8027C 228.445 40.6582 228.565 41.3408 228.806 41.8506L 228.806 42L 226.626 42ZM 224.279 40.4619C 224.701 40.4619 225.097 40.3594 225.466 40.1543C 225.841 39.9492 226.122 39.6738 226.31 39.3281L 226.31 37.5352L 225.158 37.5352C 224.367 37.5352 223.772 37.6729 223.374 37.9482C 222.976 38.2236 222.776 38.6133 222.776 39.1172C 222.776 39.5273 222.911 39.8555 223.181 40.1016C 223.456 40.3418 223.822 40.4619 224.279 40.4619Z"/>
<path id="path1_fill" d="M 115.066 53.2031L 119.25 63.6445L 123.434 53.2031L 125.622 53.2031L 125.622 66L 123.935 66L 123.935 61.0166L 124.093 55.6377L 119.892 66L 118.6 66L 114.407 55.6641L 114.574 61.0166L 114.574 66L 112.887 66L 112.887 53.2031L 115.066 53.2031ZM 127.916 61.1572C 127.916 60.2256 128.098 59.3877 128.461 58.6436C 128.83 57.8994 129.34 57.3252 129.99 56.9209C 130.646 56.5166 131.394 56.3145 132.231 56.3145C 133.526 56.3145 134.572 56.7627 135.369 57.6592C 136.172 58.5557 136.573 59.748 136.573 61.2363L 136.573 61.3506C 136.573 62.2764 136.395 63.1084 136.037 63.8467C 135.686 64.5791 135.179 65.1504 134.517 65.5605C 133.86 65.9707 133.104 66.1758 132.249 66.1758C 130.96 66.1758 129.914 65.7275 129.111 64.8311C 128.314 63.9346 127.916 62.748 127.916 61.2715L 127.916 61.1572ZM 129.551 61.3506C 129.551 62.4053 129.794 63.252 130.28 63.8906C 130.772 64.5293 131.429 64.8486 132.249 64.8486C 133.075 64.8486 133.731 64.5264 134.218 63.8818C 134.704 63.2314 134.947 62.3232 134.947 61.1572C 134.947 60.1143 134.698 59.2705 134.2 58.626C 133.708 57.9756 133.052 57.6504 132.231 57.6504C 131.429 57.6504 130.781 57.9697 130.289 58.6084C 129.797 59.2471 129.551 60.1611 129.551 61.3506ZM 142.427 64.8486C 143.007 64.8486 143.514 64.6729 143.947 64.3213C 144.381 63.9697 144.621 63.5303 144.668 63.0029L 146.206 63.0029C 146.177 63.5479 145.989 64.0664 145.644 64.5586C 145.298 65.0508 144.835 65.4434 144.255 65.7363C 143.681 66.0293 143.071 66.1758 142.427 66.1758C 141.132 66.1758 140.101 65.7451 139.333 64.8838C 138.571 64.0166 138.19 62.833 138.19 61.333L 138.19 61.0605C 138.19 60.1348 138.36 59.3115 138.7 58.5908C 139.04 57.8701 139.526 57.3105 140.159 56.9121C 140.798 56.5137 141.551 56.3145 142.418 56.3145C 143.484 56.3145 144.369 56.6338 145.072 57.2725C 145.781 57.9111 146.159 58.7402 146.206 59.7598L 144.668 59.7598C 144.621 59.1445 144.387 58.6406 143.965 58.248C 143.549 57.8496 143.033 57.6504 142.418 57.6504C 141.592 57.6504 140.95 57.9492 140.493 58.5469C 140.042 59.1387 139.816 59.9971 139.816 61.1221L 139.816 61.4297C 139.816 62.5254 140.042 63.3691 140.493 63.9609C 140.944 64.5527 141.589 64.8486 142.427 64.8486ZM 150.996 61.9482L 149.81 61.9482L 149.81 66L 148.175 66L 148.175 56.4902L 149.81 56.4902L 149.81 60.5156L 150.873 60.5156L 154.072 56.4902L 156.041 56.4902L 152.279 61.0605L 156.357 66L 154.292 66L 150.996 61.9482ZM 157.904 66L 157.904 56.4902L 161.613 56.4902C 162.879 56.4902 163.849 56.7129 164.522 57.1582C 165.202 57.5977 165.542 58.2451 165.542 59.1006C 165.542 59.54 165.41 59.9385 165.146 60.2959C 164.883 60.6475 164.493 60.917 163.978 61.1045C 164.552 61.2393 165.012 61.5029 165.357 61.8955C 165.709 62.2881 165.885 62.7568 165.885 63.3018C 165.885 64.1748 165.563 64.8428 164.918 65.3057C 164.279 65.7686 163.374 66 162.202 66L 157.904 66ZM 159.53 61.8252L 159.53 64.6904L 162.22 64.6904C 162.899 64.6904 163.406 64.5645 163.74 64.3125C 164.08 64.0605 164.25 63.7061 164.25 63.249C 164.25 62.2998 163.553 61.8252 162.158 61.8252L 159.53 61.8252ZM 159.53 60.5244L 161.631 60.5244C 163.154 60.5244 163.916 60.0791 163.916 59.1885C 163.916 58.2979 163.195 57.8379 161.754 57.8086L 159.53 57.8086L 159.53 60.5244ZM 173.909 66C 173.815 65.8125 173.739 65.4785 173.681 64.998C 172.925 65.7832 172.022 66.1758 170.974 66.1758C 170.036 66.1758 169.266 65.9121 168.662 65.3848C 168.064 64.8516 167.766 64.1777 167.766 63.3633C 167.766 62.373 168.141 61.6055 168.891 61.0605C 169.646 60.5098 170.707 60.2344 172.072 60.2344L 173.654 60.2344L 173.654 59.4873C 173.654 58.9189 173.484 58.4678 173.145 58.1338C 172.805 57.7939 172.304 57.624 171.642 57.624C 171.062 57.624 170.575 57.7705 170.183 58.0635C 169.79 58.3564 169.594 58.7109 169.594 59.127L 167.959 59.127C 167.959 58.6523 168.126 58.1953 168.46 57.7559C 168.8 57.3105 169.257 56.959 169.831 56.7012C 170.411 56.4434 171.047 56.3145 171.738 56.3145C 172.834 56.3145 173.692 56.5898 174.313 57.1406C 174.935 57.6855 175.257 58.4385 175.28 59.3994L 175.28 63.7764C 175.28 64.6494 175.392 65.3438 175.614 65.8594L 175.614 66L 173.909 66ZM 171.211 64.7607C 171.721 64.7607 172.204 64.6289 172.661 64.3652C 173.118 64.1016 173.449 63.7588 173.654 63.3369L 173.654 61.3857L 172.38 61.3857C 170.388 61.3857 169.392 61.9688 169.392 63.1348C 169.392 63.6445 169.562 64.043 169.901 64.3301C 170.241 64.6172 170.678 64.7607 171.211 64.7607Z"/>
</defs>
</svg>
